# xmcd
#
# Track frame offsets: 
#        150
#        36477
#        62085
#        87447
#
# Disc length: 1527 seconds
#
# Revision: 2
# Processed by: cddbd v1.5.2PL0 Copyright (c) Steve Scherf et al.
# Submitted via: ExactAudioCopy v0.95b3
#
DISCID=3205f504
DTITLE=Bobby Brown - My Prerogative [Japan]
DYEAR=1988
DGENRE=Club
TTITLE0=My Prerogative [Extended Remix]
TTITLE1=My Prerogative [Radio Edit]
TTITLE2=My Prerogative [Instrumental]
TTITLE3=My Prerogative [Dub]
EXTD=
EXTT0=
EXTT1=
EXTT2=
EXTT3=
PLAYORDER=
